Coordinates
version=1
nRows=25
nColumns=28
inDegrees=yes

Units are S.I. units (second, meters, Newtons, ...)
If the header above contains a line with 'inDegrees', this indicates whether rotational values are in degrees (yes) or radians (no).

endheader
time	bJoint_3	bJoint_4	seatpos	slocangle	soarinout	plocangle	poarinout	hipangle	kneeangle	footangle	lbackangle	uarmleft_out	uarmleft_trn	uarmleft_up	se_inout	se_updown	handleleft_out	handleleft_trn	handleleft_up	uarmright_out	uarmright_trn	uarmright_up	pe_inout	pe_updown	handleright_out	handleright_trn	handleright_up
      0.02000000	     -0.00000007	     -0.00000011	     -0.64331392	     76.17700578	     17.80076947	     75.78185774	     17.08264397	     24.16620237	    143.34039222	     77.50659459	     10.73885244	    227.52582324	    -31.53105945	    190.58825946	     -1.26065734	     -6.81038773	     67.14204324	    -59.57228053	     49.47078209	     46.01060100	   -130.77721236	      9.22263694	     -5.19899970	     -7.11635327	     80.75772081	    -69.11675356	    101.61906589
      0.04000000	     -0.00000007	     -0.00000011	     -0.64831921	     76.49012980	     17.80854850	     76.09922244	     17.08827886	     23.92527929	    143.97395478	     77.89923407	     10.77381901	    228.02410538	    -31.49061706	    190.37111562	     -1.30132598	     -6.80087135	     66.95893867	    -59.84446548	     49.56430835	     46.72028791	   -131.07768893	      9.28649667	     -4.76724754	     -7.33109655	     80.94170844	    -69.02411921	    101.35917444
      0.06000000	     -0.00000007	     -0.00000011	     -0.64509444	     76.25413476	     17.79934545	     75.86079431	     17.08897341	     24.08004707	    143.56596908	     77.64601616	     10.70930897	    227.53499784	    -31.59925864	    190.49543215	     -1.42814155	     -6.94335659	     67.03944378	    -59.70724659	     49.53529406	     45.96817143	   -130.77158202	      9.08773515	     -5.34200992	     -7.27112231	     80.82042879	    -69.21632827	    101.50194145
      0.08000000	     -0.00000007	     -0.00000011	     -0.64108419	     76.01608635	     17.80402977	     75.62003889	     17.08463668	     24.27478504	    143.05759194	     77.33237698	     10.68385328	    227.26250160	    -31.57698465	    190.58056001	     -1.21425169	     -6.62971159	     67.27406739	    -59.42387086	     49.36663346	     45.77213250	   -130.63538398	      9.20477339	     -5.18257401	     -6.88167126	     80.57745989	    -69.03426502	    101.73185391
      0.10000000	     -0.00000007	     -0.00000011	     -0.63706437	     75.77355552	     17.79695751	     75.37881363	     17.08893722	     24.47244440	    142.54687326	     77.01931766	     10.68278175	    226.84470347	    -31.64115593	    190.81714321	     -1.29879829	     -6.79368099	     67.36471618	    -59.29219641	     49.33338403	     45.47051687	   -130.51066746	      9.52538187	     -5.25312350	     -7.08471433	     80.53275755	    -68.98131442	    101.82225842
      0.12000000	     -0.00000007	     -0.00000011	     -0.63303372	     75.53591882	     17.80083070	     75.12714583	     17.08404472	     24.67303365	    142.03364363	     76.70667728	     10.67655137	    226.48902028	    -31.70448612	    190.95753889	     -1.29978722	     -6.68547773	     67.52850766	    -59.14965658	     49.21713835	     45.17176266	   -130.38509334	      9.84674614	     -5.26844866	     -7.27365043	     80.48331717	    -68.88467406	    101.91730128
      0.14000000	     -0.00000007	     -0.00000011	     -0.62826641	     75.27984310	     17.80405415	     74.86230126	     17.07559301	     24.91328928	    141.42514397	     76.33843325	     10.71210884	    226.22060878	    -31.67330434	    191.24659165	     -1.14317115	     -6.65827221	     67.72259562	    -58.91356289	     49.14363996	     44.93475590	   -130.26816857	     10.17347615	     -5.25783684	     -7.26525716	     80.36856328	    -68.79032330	    102.08010097
      0.16000000	     -0.00000007	     -0.00000011	     -0.62421466	     75.02128934	     17.78811197	     74.60800176	     17.08376687	     25.11996911	    140.90672318	     76.02669229	     10.70186271	    225.83959426	    -31.69409611	    191.40414451	     -1.07978151	     -6.62151198	     67.87021461	    -58.68205609	     49.05790623	     44.64772669	   -130.14745753	     10.48275264	     -5.28653682	     -7.40411183	     80.32540257	    -68.71378366	    102.20522086
      0.18000000	     -0.00000007	     -0.00000011	     -0.62022701	     74.76635865	     17.79860389	     74.35259647	     17.06953355	     25.32554607	    140.39537541	     75.72092148	     10.68216382	    225.39857280	    -31.79189469	    191.58778961	     -1.20702485	     -6.69283641	     67.95040033	    -58.58999625	     48.96730243	     44.44670915	   -130.02134411	     10.61401143	     -5.10898450	     -7.05624806	     80.12458370	    -68.51409920	    102.44014981
      0.20000000	     -0.00000007	     -0.00000011	     -0.61619006	     74.49955733	     17.79048615	     74.08998492	     17.07551627	     25.53579882	    139.87655874	     75.41235756	     10.67069755	    224.95511502	    -31.86169441	    191.83029906	     -1.27735060	     -6.89365416	     68.03676946	    -58.43744560	     48.95572694	     44.13566879	   -129.88675132	     10.92857365	     -5.15743167	     -7.24306206	     80.07836612	    -68.44611498	    102.53369315
      0.22000000	     -0.00000008	     -0.00000011	     -0.61217779	     74.23537789	     17.79590550	     73.81581677	     17.06886673	     25.74683965	    139.35976877	     75.10660842	     10.64408142	    224.56087737	    -31.93627854	    191.93091456	     -1.27060667	     -6.74623887	     68.19518420	    -58.27483424	     48.81953750	     43.78971644	   -129.71847746	     11.08235274	     -5.17202678	     -7.14674054	     79.94760126	    -68.34557645	    102.70178510
      0.24000000	     -0.00000007	     -0.00000011	     -0.60795147	     73.95666385	     17.79019490	     73.54808872	     17.08068156	     25.97132139	    138.81416443	     74.78548583	     10.62912165	    224.16897844	    -31.99575426	    192.07544444	     -1.21692130	     -6.65707951	     68.37497943	    -58.07416822	     48.72865143	     43.54905553	   -129.57699401	     11.25516363	     -5.12977652	     -6.89928731	     79.77543085	    -68.24606347	    102.91464400
      0.26000000	     -0.00000007	     -0.00000012	     -0.60393745	     73.69065863	     17.78901045	     73.27431477	     17.07338346	     26.18655006	    138.29478068	     74.48133074	     10.62202430	    223.74492519	    -32.07786475	    192.29554425	     -1.29317161	     -6.79539433	     68.46501002	    -57.94893001	     48.69246332	     43.23404171	   -129.44380619	     11.58471816	     -5.14511698	     -7.12831022	     79.74460059	    -68.14797977	    102.99271014
      0.28000000	     -0.00000007	     -0.00000012	     -0.59991204	     73.40831056	     17.78619763	     72.99030979	     17.07206720	     26.40432384	    137.77275504	     74.17707888	     10.59125186	    223.33741270	    -32.15832158	    192.40782125	     -1.25289837	     -6.69230986	     68.64475628	    -57.75964786	     48.60358674	     42.89191426	   -129.27177617	     11.73278970	     -5.15460077	     -7.00811371	     79.60901101	    -68.05069902	    103.16490993
      0.30000000	     -0.00000008	     -0.00000012	     -0.59589867	     73.14548303	     17.79400655	     72.71525199	     17.06437886	     26.62333355	    137.25111749	     73.87445104	     10.58952292	    222.92786085	    -32.25084941	    192.63130021	     -1.35299990	     -6.81886317	     68.72399624	    -57.66876171	     48.55396885	     42.59775410	   -129.14538692	     12.07071285	     -5.15387418	     -7.22799101	     79.57924130	    -67.94837369	    103.24294963
      0.32000000	     -0.00000008	     -0.00000012	     -0.59186953	     72.86213811	     17.79315939	     72.42968540	     17.06024602	     26.84505967	    136.72624424	     73.57130390	     10.56459322	    222.52882292	    -32.32851836	    192.75397400	     -1.31740896	     -6.72944681	     68.89062100	    -57.48830707	     48.46480793	     42.28926642	   -128.98386323	     12.22660211	     -5.12303614	     -7.07746269	     79.43800797	    -67.83247931	    103.42013635
      0.34000000	     -0.00000008	     -0.00000012	     -0.58707880	     72.57358978	     17.79192761	     72.14119175	     17.06376969	     27.11106486	    136.10060089	     73.21166575	     10.60132465	    222.20432086	    -32.36079393	    192.98531360	     -1.23191909	     -6.64963456	     69.06919280	    -57.30467129	     48.36748423	     42.09253208	   -128.86831228	     12.56229344	     -5.09541101	     -7.01887492	     79.32496349	    -67.75084823	    103.59072190
      0.36000000	     -0.00000008	     -0.00000012	     -0.58306024	     72.29640242	     17.78507000	     71.86117580	     17.05678616	     27.33613958	    135.57448100	     72.91062058	     10.60244809	    221.79525748	    -32.43161672	    193.21642354	     -1.27104565	     -6.80436257	     69.15923335	    -57.15895323	     48.35077941	     41.82455990	   -128.74890598	     12.90485716	     -5.06702672	     -7.20937774	     79.29131014	    -67.63873129	    103.67401964
      0.38000000	     -0.00000008	     -0.00000012	     -0.57885253	     72.00069777	     17.78868348	     71.56402447	     17.05612088	     27.57367108	    135.02229878	     72.59596986	     10.58432343	    221.40666311	    -32.51948226	    193.34093849	     -1.22411127	     -6.67538597	     69.34257291	    -56.98955720	     48.25195603	     41.56018313	   -128.61547815	     13.08470911	     -4.98659197	     -7.00617882	     79.17700506	    -67.50036951	    103.90349657
      0.40000000	     -0.00000008	     -0.00000012	     -0.57482985	     71.70856382	     17.79187543	     71.27014941	     17.06036684	     27.80250819	    134.49314341	     72.29565160	     10.55978385	    221.01141504	    -32.60512872	    193.45463532	     -1.18926674	     -6.56712270	     69.50371082	    -56.82093121	     48.15447384	     41.23831538	   -128.44775742	     13.24101956	     -4.99960072	     -6.88084545	     79.05354764	    -67.41926628	    104.07460051
      0.42000000	     -0.00000008	     -0.00000012	     -0.57080536	     71.40888897	     17.78026735	     70.97185490	     17.06114912	     28.03313169	    133.96251131	     71.99564300	     10.54814924	    220.57366897	    -32.67482970	    193.68462521	     -1.20115209	     -6.75473962	     69.59750115	    -56.64038117	     48.16269618	     40.81499041	   -128.25486333	     13.45795479	     -5.16974525	     -7.04704375	     79.00907791	    -67.41741245	    104.16026821
      0.44000000	     -0.00000008	     -0.00000012	     -0.56676168	     71.10903863	     17.77690806	     70.66509105	     17.06160901	     28.26652293	    133.42809093	     71.69461386	     10.52818830	    220.18138536	    -32.74988481	    193.81479291	     -1.13915982	     -6.68150522	     69.76076333	    -56.44997660	     48.09007776	     40.50071236	   -128.11248807	     13.77472971	     -5.15238319	     -7.22888091	     78.97246376	    -67.30727856	    104.24547187
      0.46000000	     -0.00000008	     -0.00000012	     -0.56198535	     70.81178782	     17.77752707	     70.35968326	     17.05206852	     28.54432094	    132.79519856	     71.33951949	     10.57296556	    219.87960952	    -32.78860646	    194.03812470	     -1.03944310	     -6.56851031	     69.93832707	    -56.27874484	     47.98581444	     40.32921075	   -128.00707080	     14.13915069	     -5.06508439	     -7.19531348	     78.87647581	    -67.18635994	    104.40354330
      0.48000000	     -0.00000008	     -0.00000012	     -0.55796127	     70.51846675	     17.78117488	     70.06461993	     17.05095014	     28.78012217	    132.26058661	     71.04070878	     10.56137580	    219.52249700	    -32.91977347	    194.17931748	     -0.99387994	     -6.48225998	     70.15643527	    -56.15606334	     47.95469142	     40.07287070	   -127.85651030	     14.31706164	     -5.01038993	     -7.02661643	     78.73663615	    -67.07699320	    104.57034879
      0.50000000	     -0.00000008	     -0.00000012	     -0.55377321	     70.18818534	     17.78264452	     69.74263876	     17.04932222	     29.02721145	    131.70281805	     70.73002950	     10.53730546	    218.93597119	    -33.11080618	    194.39753495	     -1.26284135	     -6.77371464	     70.16617554	    -56.12267286	     47.94276046	     39.77048078	   -127.69127348	     14.50428077	     -4.95440600	     -6.89548412	     78.60772555	    -66.95318831	    104.73760123
